<?xml version="1.0" encoding="UTF-8"?>
<svg xmlns="http://www.w3.org/2000/svg" xmlns:xlink="http://www.w3.org/1999/xlink" width="34pt" height="50pt" viewBox="0 0 34 50" version="1.1">
<g id="surface1">
<path style=" stroke:none;fill-rule:nonzero;fill:rgb(27.058824%,35.294118%,39.215686%);fill-opacity:1;" d="M 19.050781 25.019531 L 14.882812 25.019531 C 13.632812 25.019531 12.800781 25.84375 12.800781 27.078125 L 12.800781 29.132812 C 12.800781 30.367188 13.632812 31.1875 14.882812 31.1875 L 19.050781 31.1875 C 20.300781 31.1875 21.132812 30.367188 21.132812 29.132812 L 21.132812 27.078125 C 21.132812 25.84375 20.300781 25.019531 19.050781 25.019531 Z M 19.050781 25.019531 "/>
<path style=" stroke:none;fill-rule:nonzero;fill:rgb(27.058824%,35.294118%,39.215686%);fill-opacity:1;" d="M 12.800781 12.683594 L 21.132812 12.683594 C 22.382812 12.683594 23.21875 11.863281 23.21875 10.628906 L 23.21875 8.570312 C 23.21875 6.105469 19.675781 4.460938 16.964844 4.460938 C 14.257812 4.460938 10.714844 5.898438 10.714844 8.570312 L 10.714844 10.628906 C 10.714844 11.863281 11.546875 12.683594 12.800781 12.683594 Z M 12.800781 12.683594 "/>
<path style=" stroke:none;fill-rule:nonzero;fill:rgb(27.058824%,35.294118%,39.215686%);fill-opacity:1;" d="M 31.554688 29.132812 L 29.46875 29.132812 L 29.46875 25.019531 C 29.484375 23.886719 28.566406 22.953125 27.414062 22.9375 C 26.265625 22.917969 25.316406 23.828125 25.300781 24.960938 L 25.300781 39.027344 C 25.296875 39.09375 25.296875 39.15625 25.300781 39.222656 L 25.300781 39.414062 C 25.285156 39.5625 25.285156 39.714844 25.300781 39.863281 L 25.300781 44.167969 C 24.394531 43.789062 23.335938 43.523438 22.175781 43.523438 C 21.015625 43.523438 19.960938 43.789062 19.050781 44.167969 L 19.050781 37.355469 C 19.089844 36.222656 18.191406 35.269531 17.042969 35.230469 C 16.953125 35.226562 16.859375 35.230469 16.769531 35.238281 C 16.683594 35.253906 16.59375 35.273438 16.511719 35.300781 C 15.539062 35.515625 14.859375 36.375 14.882812 37.355469 L 14.882812 44.167969 C 13.972656 43.789062 12.917969 43.523438 11.757812 43.523438 C 10.597656 43.523438 9.539062 43.789062 8.632812 44.167969 L 8.632812 39.800781 C 8.6875 39.523438 8.6875 39.238281 8.632812 38.964844 L 8.632812 25.019531 C 8.660156 23.886719 7.75 22.941406 6.597656 22.914062 C 6.429688 22.910156 6.257812 22.929688 6.089844 22.964844 C 5.121094 23.179688 4.4375 24.039062 4.464844 25.019531 L 4.464844 29.132812 L 2.378906 29.132812 L 2.378906 22.964844 C 2.378906 20.515625 4.066406 18.851562 6.546875 18.851562 L 8.828125 18.851562 C 8.871094 18.855469 8.914062 18.855469 8.957031 18.851562 C 11.238281 20.359375 14.035156 20.910156 16.964844 20.910156 C 19.925781 20.910156 22.789062 20.398438 25.105469 18.851562 L 27.386719 18.851562 C 29.867188 18.851562 31.554688 20.515625 31.554688 22.964844 Z M 31.554688 33.246094 L 29.46875 33.246094 L 29.46875 31.1875 L 31.554688 31.1875 Z M 31.554688 37.355469 L 29.46875 37.355469 L 29.46875 35.300781 L 31.554688 35.300781 Z M 25.300781 47.636719 L 19.050781 47.636719 L 19.050781 46.480469 C 19.917969 46.03125 21.089844 45.582031 22.175781 45.582031 C 23.261719 45.582031 24.433594 46.03125 25.300781 46.480469 Z M 14.882812 47.636719 L 8.632812 47.636719 L 8.632812 46.480469 C 9.5 46.03125 10.667969 45.582031 11.757812 45.582031 C 12.84375 45.582031 14.015625 46.03125 14.882812 46.480469 Z M 4.464844 33.246094 L 2.378906 33.246094 L 2.378906 31.1875 L 4.464844 31.1875 Z M 4.464844 37.355469 L 2.378906 37.355469 L 2.378906 35.300781 L 4.464844 35.300781 Z M 8.632812 9.601562 C 8.632812 6.664062 9.484375 5.074219 10.84375 4.011719 C 12.207031 2.945312 14.347656 2.402344 16.964844 2.402344 C 19.609375 2.402344 21.742188 2.914062 23.085938 3.945312 C 24.433594 4.980469 25.300781 6.546875 25.300781 9.601562 C 25.300781 11.03125 25.109375 12.140625 24.765625 13.015625 C 24.382812 14.007812 23.800781 14.707031 23.085938 15.253906 C 21.742188 16.289062 19.609375 16.796875 16.964844 16.796875 C 14.347656 16.796875 12.207031 16.253906 10.84375 15.1875 C 10.144531 14.640625 9.578125 13.953125 9.195312 13.015625 C 8.832031 12.132812 8.632812 11.023438 8.632812 9.601562 Z M 33.933594 22.964844 C 33.933594 19.949219 32.148438 17.601562 29.46875 16.800781 L 29.46875 15.027344 C 29.46875 13.917969 28.554688 13.015625 27.429688 13.015625 L 27.269531 13.015625 C 27.546875 12.015625 27.683594 10.882812 27.683594 9.601562 C 27.683594 6.117188 26.6875 3.734375 24.550781 2.09375 C 22.789062 0.742188 20.238281 0.0546875 16.964844 0.0546875 C 13.765625 0.0546875 11.136719 0.785156 9.367188 2.167969 C 7.242188 3.828125 6.25 6.191406 6.25 9.601562 C 6.25 10.882812 6.390625 12.011719 6.679688 13.015625 L 6.5 13.015625 C 5.375 13.015625 4.464844 13.917969 4.464844 15.027344 L 4.464844 16.800781 C 1.785156 17.601562 0 19.949219 0 22.964844 L 0 29.132812 C 0 29.503906 0.0898438 29.851562 0.242188 30.160156 C 0.0898438 30.472656 0 30.820312 0 31.1875 L 0 33.246094 C 0 33.613281 0.0898438 33.960938 0.242188 34.273438 C 0.0898438 34.582031 0 34.933594 0 35.300781 L 0 37.355469 C 0 38.652344 1.066406 39.707031 2.378906 39.707031 L 4.464844 39.707031 C 5.175781 39.707031 5.816406 39.394531 6.25 38.90625 L 6.25 38.964844 C 6.25 39.105469 6.265625 39.242188 6.289062 39.382812 C 6.265625 39.519531 6.25 39.660156 6.25 39.800781 L 6.25 44.167969 C 6.25 44.578125 6.359375 44.976562 6.5625 45.324219 C 6.363281 45.671875 6.25 46.066406 6.25 46.480469 L 6.25 47.636719 C 6.25 48.933594 7.316406 49.988281 8.632812 49.988281 L 14.882812 49.988281 C 15.78125 49.988281 16.5625 49.496094 16.964844 48.769531 C 17.371094 49.496094 18.152344 49.988281 19.050781 49.988281 L 25.300781 49.988281 C 26.617188 49.988281 27.683594 48.933594 27.683594 47.636719 L 27.683594 46.480469 C 27.683594 46.066406 27.570312 45.671875 27.371094 45.324219 C 27.570312 44.976562 27.683594 44.578125 27.683594 44.167969 L 27.683594 39.863281 C 27.683594 39.789062 27.679688 39.714844 27.671875 39.636719 C 27.679688 39.5625 27.683594 39.488281 27.683594 39.414062 L 27.683594 39.222656 C 27.683594 39.1875 27.679688 39.15625 27.679688 39.125 C 27.679688 39.09375 27.683594 39.058594 27.683594 39.027344 L 27.683594 38.90625 C 28.117188 39.394531 28.757812 39.707031 29.46875 39.707031 L 31.554688 39.707031 C 32.867188 39.707031 33.933594 38.652344 33.933594 37.355469 L 33.933594 35.300781 C 33.933594 34.933594 33.84375 34.582031 33.691406 34.273438 C 33.84375 33.960938 33.933594 33.613281 33.933594 33.246094 L 33.933594 31.1875 C 33.933594 30.820312 33.84375 30.472656 33.691406 30.160156 C 33.84375 29.851562 33.933594 29.503906 33.933594 29.132812 Z M 33.933594 22.964844 "/>
</g>
</svg>
