<?xml version="1.0" standalone="no"?>
<!DOCTYPE svg PUBLIC "-//W3C//DTD SVG 1.1//EN" "http://www.w3.org/Graphics/SVG/1.1/DTD/svg11.dtd">
<svg xmlns="http://www.w3.org/2000/svg" id="Layer_1" data-name="Layer 1" viewBox="0 0 4000 4000" width="4000" height="4000">
  <defs>
    <style>
      .cls-1 {
        fill: #01c9fe;
      }
    </style>
  </defs>
  <path class="cls-1" d="m252.79,1950.49h120.68l47.77-51.57h-168.45c-40.59,0-70.4-19.49-70.4-47.97s30.17-48.88,70.4-48.88h120.68l47.77-52.17h-168.45c-83.33,0-144.75,39.58-144.75,98.35s61.42,102.25,144.75,102.25Zm253.13-53.2h100.95l47.3,52.92h87.93l-39.05-38.87c-14.6-14.05-22.54-21.23-29.84-26.31,34.92-6.58,55.55-32.29,55.55-63.39,0-57.11-60.95-71.46-109.2-71.46h-136.5l-42.86,52.03h184.75c22.54,0,36.19,7.77,36.19,23.32,0,13.75-15.87,22.42-36.19,22.42h-184.75v102.26h65.71v-52.92Zm377.17,52.81h64.02v-66l122.2-133.8h-80.03l-46.78,55.25c-14.78,17.32-21.85,25.98-25.86,31.66-4.31-5.97-21.55-24.19-28.01-31.36l-49.25-55.55h-81.87l125.58,133.5v66.3Zm277.22-50.76h119.53c71.03,0,112.36-29.76,112.36-74.24s-41.32-75.45-112.01-75.45h-143.43l-46.79,52.3h196.71c21.86,0,34.49,8.72,34.49,22.84s-12.64,23.15-34.49,23.15h-196.71v102.8h70.35v-51.4Zm293.11-149.56l-45.97,52.23h107.73v148.6h71.02v-148.6h82l45.97-52.23h-260.74Zm434.08,200.83c100.88,0,151.78-31.1,151.78-100.56s-50.9-100.27-151.78-100.27-151.78,30.81-151.78,100.27,50.59,100.56,151.78,100.56Zm0-150.25c64.56,0,87.84,7.84,87.84,49.7s-23.28,49.99-87.84,49.99-87.84-8.14-87.84-49.99,23.28-49.7,87.84-49.7Zm628.33,98.54h-223.55v-27.27h161.48l46.75-45.55h-208.23v-23.97h170.12l52.65-52.14h-304.49v200.47h253.02l52.25-51.54Zm318.57,0h-208.6v-148.93h-83.36v200.47h237.99l53.96-51.54Zm96.95-149.45h-63.38v201.5h63.38v-201.5Zm114.82,200.99h70.51v-148.33h81.41l45.64-52.14h-258.86l-45.64,52.14h106.95v148.33Zm519.83-51.54h-215.02v-27.27h155.32l44.97-45.55h-200.28v-23.97h163.63l50.64-52.14h-292.87v200.47h243.36l50.26-51.54Zm236,0h-168l-44.16,51.54h206.84c67.73,0,95.29-24.57,95.29-65.62,0-36.56-29.22-54.84-83.33-54.84h-120.85c-15.94,0-23.57-3.89-23.57-14.08s7.64-13.79,23.57-13.79h154.05l44.16-52.14h-192.9c-67.4,0-95.29,24.57-95.29,62.33,0,34.46,26.23,57.53,83.33,57.53h120.85c16.27,0,23.57,4.19,23.57,14.38s-7.31,14.68-23.57,14.68Zm-2301.81,203.08h119.46l47.29-52.18h-166.75c-82.49,0-143.28,39.59-143.28,98.36s60.8,102.26,143.28,102.26h119.46l47.29-51.58h-166.75c-40.17,0-69.69-19.49-69.69-47.98s29.87-48.88,69.69-48.88Zm274.36-52.18h-86.77v200.62h247.72l56.17-51.58h-217.12v-149.04Zm469.89,111.24c0,27.77-17.3,38.7-72.32,38.7-73.71,0-88.24-9.45-88.24-38.7v-111.39h-71.29v111.39c0,59.68,48.1,89.53,159.53,89.53,96.2,0,144.3-29.84,144.3-89.53v-111.39h-71.98v111.39Zm360.49-13.78c16.15-5.1,31.94-18.29,31.94-41.98,0-36.89-36.15-55.48-92.31-55.48h-155.48l-49.14,52.18h207.78c10.18,0,20.36,3,20.36,12.89s-9.83,13.49-20.36,13.49h-207.78v122.05h206.38c74.06,0,95.47-25.19,95.47-58.48,0-23.99-16.5-39.58-36.85-44.68Zm-58.26,51.58h-133.72v-27.59h133.72c15.79,0,22.46,4.8,22.46,13.49,0,9.3-6.67,14.09-22.46,14.09Zm-2433.05-48.73l602.56,9.57,602.56,9.57v-38.28l-602.56,9.57-602.56,9.57Zm2567.68-19.14v38.28l602.56-9.57,602.56-9.57-602.56-9.57-602.56-9.57Z"/>
</svg>