<?xml version="1.0" encoding="utf-8"?>
<!-- Generator: Adobe Illustrator 16.0.0, SVG Export Plug-In . SVG Version: 6.00 Build 0)  -->
<!DOCTYPE svg PUBLIC "-//W3C//DTD SVG 1.1//EN" "http://www.w3.org/Graphics/SVG/1.1/DTD/svg11.dtd" [
	<!ENTITY st0 "fill:#AE313C;">
	<!ENTITY st1 "fill:#FFFFFF;">
]>
<svg version="1.1" id="Layer_1" xmlns="http://www.w3.org/2000/svg" xmlns:xlink="http://www.w3.org/1999/xlink" x="0px" y="0px"
	 width="1200px" height="433.333px" viewBox="0 0 1200 433.333" style="enable-background:new 0 0 1200 433.333;"
	 xml:space="preserve">
<g>
	<path style="&st0;" d="M405.558,153.894l3.854,21.435l0.838-21.211c-0.404,0.062-0.811,0.094-1.224,0.112
		C407.83,154.269,406.671,154.145,405.558,153.894z"/>
	<path style="&st0;" d="M499.022,297.6c-7.893-33.77-7.92-30.793-16.007-64.404c-0.645-2.686-30.247-22.751-30.892-25.442
		c-0.441-1.814,16.485-26.795,16.043-28.609c-7.525-30.942-11.516-57.933-20.091-88.691c-2.014-7.265-8.445-12.066-15.96-12.066
		h-18.849l-1.979,49.517c5.852,1.23,10.331,6.29,10.571,12.514c0.257,6.94-4.839,12.826-11.609,13.7l-0.838,21.211l-3.854-21.435
		c-5.722-1.315-10.101-6.324-10.321-12.493c-0.186-4.83,2.244-9.144,6.007-11.616l-9.209-51.398h-19.107
		c-7.12,0-13.228,4.277-15.62,11.004l-3.9,10.928l12.097,136.792l28.408,89.439c7.589,23.863,29.097,39.98,52.822,40.016
		c2.355,0.006-26.2-107.898-23.808-108.211c2.355-0.326,35.646,104.996,38.01,104.355
		C489.851,354.746,505.848,326.803,499.022,297.6z M380.407,185.066c-7.333,0.266-13.533-5.493-13.799-12.822
		c-0.277-7.336,5.482-13.533,12.813-13.806c7.333-0.269,13.542,5.483,13.809,12.811
		C393.498,178.584,387.749,184.785,380.407,185.066z M411.234,213.696c-7.351,0.27-13.524-5.478-13.79-12.838
		c-0.285-7.347,5.455-13.532,12.786-13.8c7.369-0.281,13.561,5.462,13.827,12.81C424.333,207.227,418.592,213.416,411.234,213.696z
		 M439.862,182.849c-7.332,0.281-13.542-5.478-13.809-12.811c-0.267-7.324,5.484-13.537,12.823-13.805
		c7.333-0.273,13.542,5.484,13.818,12.814C452.962,176.375,447.193,182.591,439.862,182.849z"/>
	<path style="&st0;" d="M203.385,89.391c-2.41-6.727-8.473-11.004-15.63-11.004h-59.179c-7.516,0-13.946,4.801-15.961,12.066
		c-3.955,14.192-7.754,28.408-11.443,42.65c-0.451,1.695,13.008-0.433,12.575,1.27C100.132,187.265,77.999,244.264,65.525,297.6
		c-6.835,29.203,5.317,59.068,34.211,67.035c28.922,7.959,57.956-9.512,67.035-38.084l28.408-89.439l12.087-136.792L203.385,89.391z
		 M193.275,175.13c0,3.706-3.035,6.734-6.752,6.734h-12.346c-3.707,0-6.733,3.034-6.733,6.759v12.345c0,3.693-3.036,6.75-6.743,6.75
		h-11.104c-3.716,0-6.743-3.056-6.743-6.75v-12.345c0-3.726-3.035-6.759-6.761-6.759h-12.328c-3.726,0-6.762-3.028-6.762-6.734
		v-11.12c0-3.705,3.036-6.748,6.762-6.748h12.328c3.726,0,6.761-3.017,6.761-6.755V138.18c0-3.712,3.027-6.739,6.743-6.739h11.104
		c3.707,0,6.743,3.026,6.743,6.739v12.329c0,3.738,3.027,6.755,6.733,6.755h12.346c3.717,0,6.752,3.042,6.752,6.748V175.13z"/>
	<path style="&st0;" d="M346.977,100.319H302.71h-44.718h-45.214l-3.026,34.765l104.55,0.66l-0.065,4.809l-104.954,0.044
		l-4.517,51.782l110.022,0.644l-0.091,4.981l-110.456,0.504l-3.375,38.603h57.127h44.718h56.492L346.977,100.319z M271.984,163.289
		l-16.467,16.471c-2.548,2.562-6.715,2.551-9.281-0.011c-2.558-2.553-2.567-6.711,0-9.268l16.475-16.476
		c2.539-2.54,6.715-2.54,9.273,0C274.533,156.569,274.533,160.75,271.984,163.289z M309.325,163.295l-16.467,16.476
		c-2.548,2.539-6.716,2.539-9.291-0.023c-2.548-2.553-2.548-6.716,0-9.268l16.465-16.476c2.549-2.54,6.716-2.54,9.293,0
		C311.881,156.573,311.881,160.75,309.325,163.295z"/>
</g>
<path style="&st1;" d="M634.465,92.715h-12.193V78.779h38.672v13.936h-10.451v80.134l-18.117,19.162h-33.446l-18.117-19.162v-30.66
	h13.936v23.518l10.975,11.323h19.684l9.059-9.233V92.715z"/>
<path style="&st1;" d="M755.012,119.891h-14.459v-15.33l-10.451-10.8h-26.652l-9.059,9.233v17.072l8.535,8.71h36.234l17.594,18.466
	v25.608l-18.117,19.162h-43.898l-18.117-19.162v-21.95h14.459v15.33l10.627,10.801h30.137l8.883-9.233v-15.504l-8.361-8.536h-36.232
	l-17.77-18.64V97.941l18.117-19.162h40.414l18.117,19.162V119.891z"/>
<path style="&st0;" d="M821.381,61.359v116.716h26.131v13.936h-68.287v-13.936h26.131V78.256l-28.395,14.111l-6.795-13.588
	l35.189-17.42H821.381z"/>
<path style="&st0;" d="M887.752,134.001v-13.936h27.523l8.361-8.536V85.573l-9.059-9.233h-26.652l-10.453,10.801v15.33h-14.459
	v-21.95l18.117-19.162h40.416l18.117,19.162v36.06l-8.885,9.233l12.193,12.717v34.318l-18.117,19.162h-43.898l-18.117-19.162v-21.95
	h14.459v15.33l10.627,10.801h30.137l8.885-9.233v-24.214l-9.408-9.581H887.752z"/>
<path style="&st0;" d="M1056.203,192.011h-36.932v-13.936h8.885l-25.607-35.712h-17.246v35.712h12.193v13.936h-40.414v-13.936
	h12.193v-85.36h-12.193V78.779h40.414v13.936h-12.193v35.712h15.33l25.781-35.712h-8.885V78.779h36.932v13.936h-10.104
	l-29.789,41.46l31.531,43.899h10.104V192.011z"/>
<path style="&st1;" d="M659.199,300.213H635.16v-13.938h37.975v47.906l-18.117,19.162h-45.641l-18.116-19.162v-92.328l18.116-19.162
	h45.641l18.117,19.162v21.951h-13.936v-14.809l-10.975-11.322h-31.879l-9.059,9.232v82.225l8.885,9.232h31.879l11.148-11.324
	V300.213z"/>
<path style="&st1;" d="M753.268,353.344v-13.936h11.498l-7.492-21.602h-43.549l-7.492,21.602h11.672v13.936h-36.93v-13.936h9.232
	l29.439-85.359h-7.316v-13.938h46.512v13.938h-7.49l29.439,85.359h9.406v13.936H753.268z M735.498,254.57l-17.07,49.301h34.143
	L735.498,254.57z"/>
<path style="&st1;" d="M828,339.408h12.193v13.936h-40.414v-13.936h12.193v-85.359h-12.193v-13.938h35.537l32.924,82.398
	l32.924-82.398h35.537v13.938h-12.193v85.359h12.193v13.936h-40.414v-13.936h12.193v-79.611l-32.574,79.611h-15.33L828,259.797
	V339.408z"/>
<path style="&st1;" d="M957.605,240.111h82.92v34.145h-13.936v-20.207h-40.764v35.711h40.764v13.938h-40.764v35.711h40.764v-20.207
	h13.936v34.143h-82.92v-13.936h12.193v-85.359h-12.193V240.111z"/>
<path style="&st1;" d="M1134.592,281.225h-14.459v-15.33l-10.451-10.801h-26.652l-9.059,9.232v17.072l8.535,8.711h36.234
	l17.594,18.465v25.607l-18.117,19.162h-43.898l-18.117-19.162v-21.949h14.459v15.33l10.627,10.801h30.137l8.883-9.232v-15.506
	l-8.361-8.535h-36.232l-17.77-18.639v-27.176l18.117-19.164h40.414l18.117,19.164V281.225z"/>
</svg>
