<?xml version="1.0" encoding="UTF-8"?><svg id="Layer_2" xmlns="http://www.w3.org/2000/svg" viewBox="0 0 233.65 48"><g id="design"><path d="m21.03,0c-.1,0-.22.04-.35.1-.09.04-.17.08-.4.21-.09.05-.14.08-.21.12-.02.01-.04.02-.04.02,0,0-.03.02-.06.03-.22.11-.43.23-.67.36-.01,0-.12.07-.24.13-.33.18-.41.23-.7.41-.16.1-.34.21-.45.27-.09.05-.22.13-.38.23-.09.05-.19.11-.22.13q-.14.08-.42.24c-.11.06-.19.11-.39.23-.14.09-.26.16-.33.19-.01,0-.08.04-.14.08-.2.11-.22.12-.28.16-.03.02-.06.03-.07.04s-.04.03-.08.05c-.03.02-.07.04-.08.05s-.04.02-.06.04c-.1.06-.34.21-.34.21,0,0-.01,0-.02.01-.01,0-.03.02-.04.03-.01,0-.06.03-.1.05-.04.02-.09.05-.12.07-.08.04-.12.07-.16.09-.02.01-.04.02-.04.02s-.02.01-.05.03c-.02.01-.05.03-.05.03,0,0-.03.02-.07.04-.06.04-.12.07-.26.15-.15.08-.42.24-.52.3-.03.02-.06.03-.07.04-.03.02-.22.14-.24.15-.06.04-.39.23-.49.29-.01,0-.03.01-.03.02,0,0-.02,0-.03.02-.03.02-.12.07-.18.11-.03.02-.06.04-.07.04,0,0-.05.03-.09.05-.09.05-.3.18-.39.22-.23.12-.34.19-.44.24-.03.02-.06.04-.07.04,0,0-.07.04-.14.08-.12.07-.29.17-.35.21-.38.21-.74.45-.93.6-.31.26-.41.52-.44,1.1,0,.13,0,.63,0,1.76,0,.58,0,1.39,0,2.29,0,1.9,0,2.09.05,2.33.02.08.06.18.1.23.02.03.09.1.1.1,0,0,.01,0,.02.01.01,0,.03.02.05.02.18.06.38.01.69-.17.02-.01.09-.05.14-.09.19-.12.3-.19.54-.32.17-.09.21-.12.5-.29.38-.22.44-.26.76-.46.1-.07.2-.12.26-.16.12-.07.15-.08.17-.1.14-.07.29-.16.33-.19.01,0,.03-.02.03-.02,0,0,.02-.01.04-.03.2-.12.45-.28.5-.31.03-.02.24-.14.31-.18.04-.02.15-.09.25-.15.26-.16.3-.19.39-.23.25-.15.4-.24.58-.36.08-.05.18-.12.21-.13.01,0,.04-.02.06-.03.04-.03.24-.14.34-.2.04-.02.1-.06.14-.08.3-.18.46-.28.76-.44.02,0,.04-.02.05-.03.01,0,.02-.01.02-.01,0,0,.02,0,.04-.02s.03-.02.04-.02c0,0,.18-.1.33-.2.19-.12.26-.16.51-.3.18-.1.36-.21.61-.37.07-.05.31-.19.66-.4.06-.04.08-.05.15-.09.04-.02.08-.05.1-.06.05-.03.29-.17.31-.18.02,0,.23-.14.31-.19.03-.02.06-.04.07-.04.01,0,.05-.03.09-.05.06-.03.21-.11.22-.11,0,0,.01,0,.03-.01.14-.06.32-.1.49-.1.08,0,.13,0,.22.02.05,0,.08.02.13.03.04.01.05.01.07.02.02,0,.12.05.15.06.12.06.21.1.45.24.08.04.15.09.16.09s.05.03.09.05c.04.02.07.04.07.04s.06.03.14.08c.17.1.14.08.28.16.06.04.12.07.13.08,0,0,.05.03.09.05.04.02.09.05.1.06.01,0,.05.03.08.05.03.02.06.03.06.03s.02,0,.04.02.03.02.04.02.02,0,.04.02.03.02.04.02c0,0,.02,0,.03.02.02.01.08.05.14.08.06.03.12.07.14.09.06.04.23.14.25.15,0,0,.03.02.06.03s.05.03.06.03c0,0,.05.03.09.05.04.02.09.05.1.06.06.03.29.17.49.29.12.07.23.14.24.14s.06.03.1.05.11.06.16.09c.05.03.1.05.12.06.02,0,.04.02.06.03.02.01.04.02.04.02,0,0,.04.02.08.04.08.04.09.05.14.08.02.01.05.03.06.04.02,0,.1.06.18.1.13.07.29.17.35.2.07.04.33.2.46.28.07.05.25.15.31.18.09.05.17.1.19.11.09.05.14.08.26.15.08.05.18.11.22.13.04.03.09.06.11.07.02,0,.05.03.07.04.08.05.18.11.27.16.02.01.04.02.04.02,0,0,.03.02.06.03s.05.03.06.03c0,0,.03.01.05.03.03.01.07.04.11.06s.07.04.07.04c.05.03.21.12.24.14.02.01.04.03.05.03s.06.04.11.06.08.05.09.05,0,0,.02,0c0,0,.03.02.04.03.02,0,.05.03.06.04.04.02.14.08.18.1.02,0,.05.03.07.04.02.01.05.03.06.03,0,0,.1.06.2.12.2.12.35.21.51.29.13.07.26.14.35.2.07.04.07.04.14.08.36.21.69.39.85.46.02.01.05.02.06.03.05.02.16.05.21.06.01,0,.02,0,.02,0,.02.01.27.01.29,0,0,0,.01,0,.02,0,.01,0,.03,0,.05-.01.01,0,.03,0,.03,0,0,0,.08-.03.12-.04.05-.02.14-.07.19-.1.02-.01.04-.02.04-.02,0,0,.01,0,.02-.02.01,0,.02-.02.03-.02,0,0,.2-.13.35-.23.08-.06.21-.14.29-.2.27-.18.39-.27.52-.37.33-.25.38-.28.62-.45.14-.1.2-.14.37-.26.21-.15.29-.21.38-.27.05-.04.11-.08.13-.09.02-.01.15-.11.29-.2.43-.31.61-.43.89-.65.09-.07.37-.27.56-.41.12-.09.26-.19.33-.24.08-.06.16-.14.2-.19.18-.22.17-.45-.02-.67-.1-.11-.2-.18-.56-.4-.12-.07-.26-.16-.31-.19-.1-.06-.26-.16-.27-.16,0,0-.02-.01-.04-.02-.02-.01-.04-.02-.04-.02,0,0-.02,0-.03-.02-.02,0-.05-.03-.07-.04-.07-.04-.22-.12-.29-.16-.07-.04-.09-.05-.3-.18-.07-.04-.18-.11-.23-.14-.11-.07-.11-.06-.27-.15-.14-.07-.32-.18-.45-.26-.09-.05-.25-.15-.42-.24-.25-.14-.34-.2-.56-.33-.2-.13-.3-.19-.49-.29-.15-.09-.22-.13-.4-.23-.26-.16-.32-.19-.6-.34-.18-.1-.22-.12-.47-.27-.33-.2-.33-.2-.57-.33-.17-.09-.42-.24-.59-.34-.04-.02-.22-.13-.27-.15-.01,0-.1-.05-.19-.1-.09-.05-.21-.12-.27-.15-.06-.04-.12-.07-.14-.08-.01,0-.03-.02-.04-.03-.01,0-.02-.01-.02-.01s-.01,0-.02-.01c-.01,0-.11-.06-.21-.12-.36-.2-.43-.24-.64-.37-.05-.03-.13-.08-.17-.1-.1-.06-.18-.11-.39-.24-.16-.09-.36-.21-.47-.28-.11-.07-.27-.16-.47-.28-.13-.08-.31-.18-.41-.24-.29-.18-.39-.23-.68-.39-.15-.08-.3-.16-.52-.3-.21-.13-.31-.18-.51-.3-.08-.05-.17-.1-.2-.12-.03-.02-.06-.04-.07-.04,0,0-.06-.03-.11-.06-.08-.05-.15-.09-.31-.18-.02-.01-.07-.04-.12-.07-.28-.16-.42-.24-.62-.36-.33-.21-.46-.28-.86-.5-.05-.03-.25-.13-.31-.17-.04-.02-.07-.04-.08-.04,0,0-.05-.02-.08-.04-.15-.08-.3-.16-.46-.26-.26-.15-.39-.22-.5-.26-.04-.01-.09-.03-.12-.03-.02,0-.04,0-.05-.01-.02,0-.2,0-.24,0Z" style="fill:#1d1d1b; stroke-width:0px;"/><path d="m6.65,8.16s-.01,0-.03,0c-.04,0-.13.03-.2.06-.06.03-.24.11-.34.17-.37.21-.52.29-.81.47-.04.02-.1.06-.14.08-.04.02-.08.05-.1.06s-.08.05-.13.08c-.05.03-.18.11-.29.17-.24.14-.57.34-.65.39-.19.11-.31.18-.49.29-.16.1-.26.16-.42.24-.07.04-.18.1-.25.14-.14.08-.23.13-.48.28-.15.09-.27.16-.33.19-.04.02-.21.12-.24.14-.11.07-.17.1-.24.15-.22.14-.29.18-.4.25-.21.13-.25.15-.36.22-.27.18-.42.32-.54.5-.06.09-.13.24-.15.35-.03.12-.03.17-.05.36,0,.09,0,.75,0,2.61,0,1.11,0,2.11,0,2.29,0,.18,0,1.19,0,2.44,0,1.17,0,4.91,0,8.31,0,3.84,0,6.32,0,6.54,0,.34,0,.43.02.55.03.31.13.55.29.74.05.06.15.15.2.18,0,0,.01,0,.01.01.01.02.16.11.34.22.15.09.22.14.36.23.14.09.18.12.26.17.04.02.08.05.09.06.02.01.34.2.48.29.05.03.1.06.11.07.02.01.19.11.23.13.01,0,.06.03.11.06.29.16.41.23.69.4.15.09.34.2.47.27.03.01.09.05.21.12.05.03.19.11.31.19.18.11.25.15.45.27.09.05.25.15.36.21.23.14.28.17.56.33.11.07.25.14.3.17.24.14.41.23.5.27.02,0,.06.02.07.03.09.03.19.05.29.05.15,0,.24-.05.33-.16.03-.03.08-.13.08-.14,0,0,0,0,0-.01s0,0,0-.01c0,0,0-.03.01-.05.05-.2.06-.36.05-1.28,0-.55,0-2.7,0-4.94,0-.56,0-.78.05-1,0-.02,0-.04,0-.05s0-.02,0-.03,0-.01,0-.01,0-.02,0-.04c0-.02.01-.04.01-.05.01-.06.07-.19.1-.26.1-.2.24-.35.55-.6.03-.03.14-.12.2-.17.19-.16.29-.24.61-.48.16-.12.32-.24.36-.27.2-.15.44-.33.56-.42.12-.09.23-.18.44-.34.04-.03.16-.12.26-.21.24-.19.36-.28.62-.47.11-.08.22-.16.23-.17.09-.06.21-.15.3-.2.15-.09.32-.16.45-.19.02,0,.04,0,.06-.01.02,0,.07,0,.14,0,.1,0,.12,0,.17.01.17.04.35.12.59.27.11.07.45.3.58.4.12.09.18.13.21.15.02.02.04.03.05.04.02.02.17.14.19.15.07.06.31.24.54.4.09.06.25.19.37.27.11.08.22.17.24.18.09.07.16.12.21.15.03.02.08.06.11.08.16.12.32.23.35.25.09.06.39.28.48.36.02.01.04.03.05.04s.04.03.08.06c.05.04.3.23.4.3.02.01.16.11.31.22.15.11.29.21.33.24.03.02.07.05.08.06s.07.05.13.1c.22.17.38.28.48.36.06.04.15.11.21.15.12.08.25.18.46.34.04.03.07.05.08.06,0,0,.02.02.03.02.06.04.19.14.24.18.03.02.08.06.12.08.03.02.06.05.07.05.01,0,.07.05.2.15.04.03.12.09.18.13.05.04.1.07.11.08,0,0,.02.02.04.03.03.02.37.27.38.28.01,0,.2.15.26.2.03.02.08.06.11.08.03.02.08.06.11.08s.14.1.24.18c.1.08.22.17.27.2.04.03.09.06.1.07.01.01.07.05.13.09.06.04.14.1.18.13.07.05.13.1.27.2.02.02.13.09.24.17.11.08.23.16.27.19.34.24.5.32.73.36.06.01.24.01.3,0,.11-.02.17-.04.23-.06.19-.07.27-.11.62-.32.06-.04.11-.06.11-.06s.03-.02.06-.04c.03-.02.08-.04.1-.05.02-.01.06-.03.1-.05.04-.02.08-.04.1-.05s.06-.03.1-.05.07-.04.08-.05c0,0,.09-.05.17-.1.24-.14.32-.19.56-.31.15-.08.19-.1.22-.12,0,0,.03-.02.05-.03.02-.01.05-.03.07-.04.03-.02.26-.15.32-.18.03-.02.23-.13.27-.15.16-.09.33-.19.45-.27.17-.11.34-.21.42-.26,0,0,.03-.02.06-.03s.06-.03.08-.05c.12-.07.36-.21.49-.29.14-.09.42-.26.43-.26,0,0,.02,0,.04-.02s.03-.02.04-.02c0,0,.12-.07.22-.13.21-.13.33-.21.43-.32.06-.06.08-.08.11-.14.04-.07.05-.11.06-.19,0-.05,0-.07,0-.1-.03-.11-.09-.2-.22-.33-.09-.09-.17-.16-.43-.36-.07-.05-.22-.17-.34-.27-.31-.25-.4-.31-.69-.51-.04-.03-.09-.06-.11-.07-.07-.05-.4-.28-.53-.36-.14-.1-.32-.22-.42-.3-.03-.02-.1-.08-.16-.12-.06-.04-.13-.1-.16-.12-.1-.07-.26-.2-.3-.23-.12-.09-.32-.25-.4-.3-.12-.09-.39-.29-.41-.3,0,0-.05-.04-.1-.07-.11-.08-.17-.12-.32-.22-.19-.12-.24-.16-.33-.23-.05-.03-.09-.07-.1-.07,0,0-.07-.05-.14-.1s-.13-.09-.14-.1c-.05-.03-.34-.25-.46-.34-.28-.21-.34-.26-.53-.39-.08-.06-.18-.13-.52-.37-.06-.04-.14-.1-.19-.14-.27-.19-.36-.26-.52-.38-.25-.19-.39-.3-.65-.48-.04-.03-.09-.06-.11-.07-.02-.01-.07-.05-.12-.09s-.12-.08-.15-.11-.07-.05-.08-.06c-.05-.03-.18-.13-.28-.2-.18-.14-.3-.22-.49-.35-.37-.26-.75-.54-.86-.62-.14-.12-.23-.22-.29-.33-.12-.24-.09-.5.1-.71.09-.11.18-.18.5-.41.08-.06.16-.12.17-.12s.12-.09.25-.17c.28-.2.23-.16.55-.4q.27-.2.64-.47c.06-.04.12-.09.14-.1.02-.01.1-.07.19-.13s.2-.13.24-.16.14-.1.23-.16c.29-.21.28-.2.66-.46.09-.06.2-.14.25-.17s.15-.1.24-.16c.15-.1.33-.22.4-.27.03-.02.08-.06.29-.21.1-.07.19-.14.39-.28.13-.09.14-.1.34-.25.27-.2.34-.25.69-.49.47-.32.59-.4.91-.65.08-.06.17-.13.21-.16.03-.02.06-.05.08-.06.03-.02.13-.09.33-.23.09-.07.21-.15.26-.18.05-.03.2-.13.32-.22.13-.09.28-.19.35-.24.11-.08.37-.26.46-.32.07-.05.26-.19.33-.24.03-.02.1-.07.14-.11.09-.07.25-.18.31-.23.13-.1.16-.12.24-.18.09-.07.22-.19.26-.25.06-.07.1-.15.12-.23.01-.05.01-.14,0-.2-.02-.06-.06-.15-.1-.19,0,0-.02-.02-.04-.04-.03-.03-.1-.1-.15-.14-.01,0-.02-.02-.03-.02,0,0-.06-.04-.11-.08-.1-.07-.24-.17-.45-.29-.23-.14-.31-.19-.51-.32-.16-.1-.29-.19-.53-.33-.11-.06-.14-.09-.37-.23-.19-.12-.31-.19-.44-.27-.05-.03-.1-.06-.12-.07-.02-.01-.03-.02-.03-.02,0,0-.17-.1-.23-.13-.02-.01-.05-.03-.07-.04-.02-.01-.12-.08-.23-.14-.11-.07-.21-.13-.21-.13-.07-.04-.41-.25-.44-.27-.07-.05-.37-.23-.44-.27-.02-.01-.31-.18-.36-.2-.03-.02-.15-.09-.24-.15-.18-.11-.21-.13-.28-.17-.07-.04-.17-.09-.22-.11-.01,0-.03-.01-.04-.02-.06-.03-.19-.06-.29-.08-.05,0-.24,0-.29,0-.05.01-.14.03-.16.04,0,0-.03.01-.05.02-.13.05-.29.15-.55.34-.04.03-.14.1-.22.16-.18.13-.45.32-.5.36-.02.01-.06.04-.09.07-.03.02-.19.14-.35.25s-.31.22-.33.23c-.06.04-.25.18-.43.3-.25.17-.35.24-.67.47-.02.02-.09.07-.15.11-.18.13-.23.16-.45.33-.09.06-.18.13-.2.15-.12.09-.44.33-.51.38-.04.03-.09.07-.1.07-.02.02-.1.07-.16.12-.04.03-.08.05-.21.15-.14.1-.27.2-.41.3-.1.07-.31.23-.46.33-.07.05-.13.09-.15.11-.01.01-.17.12-.35.25-.18.13-.46.33-.62.46-.34.26-.35.26-.45.33-.04.03-.09.06-.1.07-.01.01-.04.03-.06.04-.02.01-.04.03-.05.04-.06.04-.28.19-.42.29-.19.13-.34.23-.5.35-.02.01-.05.04-.07.05-.19.14-.5.37-.65.49-.21.16-.37.28-.79.58-.06.04-.12.09-.14.1-.02.01-.07.05-.12.08-.15.11-.23.16-.46.34-.23.17-.32.24-.47.34-.18.12-.27.19-.51.36-.08.06-.13.09-.16.11-.1.07-.38.27-.48.34-.03.02-.11.08-.18.13-.1.08-.28.21-.54.39-.02.01-.06.04-.09.07-.07.05-.08.06-.17.12-.07.05-.12.09-.18.13-.12.08-.21.15-.32.23-.07.05-.13.09-.14.1,0,0-.04.03-.07.05-.03.02-.1.07-.15.11-.1.07-.25.19-.31.23-.02.02-.04.03-.05.04s-.05.04-.1.07c-.09.06-.23.16-.26.17,0,0-.02,0-.02.01-.01.01-.16.08-.2.09,0,0-.03,0-.05.01-.04.01-.15.01-.18,0-.01,0-.03,0-.04,0-.02,0-.09-.03-.12-.05-.07-.04-.14-.13-.18-.22-.04-.09-.06-.17-.08-.34,0-.07-.01-6.05,0-11.05,0-2.15,0-2.2-.02-2.39-.02-.24-.07-.38-.18-.48-.08-.08-.16-.11-.28-.11-.03,0-.06,0-.06,0Z" style="fill:#1d1d1b; stroke-width:0px;"/><path d="m10.07,33.93c-.07.02-.11.04-.16.1-.09.1-.14.23-.16.46-.02.16-.02.52-.02,1.78,0,.61,0,1.59,0,2.17,0,1.09,0,2.38.01,2.48.02.17.02.21.04.3.07.28.21.48.52.71.09.07.15.11.25.17.12.07.2.12.3.18.02.01.04.02.05.03,0,0,.03.02.05.03.02.01.08.05.14.08.06.03.12.07.14.08s.03.02.04.02c0,0,.02,0,.03.02.01,0,.09.05.17.1.2.11.29.17.43.24.02.01.05.03.07.04.02,0,.03.02.03.02s.01,0,.03.01c.01,0,.04.02.06.03.05.03.18.1.36.21.09.05.16.09.16.09s0,0,.02,0c0,0,.03.02.05.03l.09.05s.07.04.09.05.05.03.07.04c.02.01.04.02.04.02,0,0,.29.17.44.26.26.16.35.21.62.36.24.13.38.21.61.34.03.01.14.08.26.15s.31.18.42.25c.21.13.28.17.31.18,0,0,.04.02.07.04s.06.03.07.04.05.03.09.05c.04.02.08.04.1.05s.03.02.04.02c0,0,.02.01.04.02.07.04.22.12.33.19.03.02.09.06.13.08.04.03.1.06.12.07.02.01.04.03.04.03s.02,0,.03.02c.04.02.19.11.23.13.03.01.07.04.18.1.01,0,.03.02.05.03.01,0,.03.01.03.01,0,0,.02,0,.04.02s.03.02.04.02.04.02.09.05.09.05.1.06c.01,0,.06.03.11.06s.1.05.11.06c.07.04.12.07.14.08.04.02.08.04.09.05.02,0,.05.03.1.05.08.04.23.13.42.26.22.14.32.2.57.33.13.07.17.1.58.33.14.08.21.12.43.24.13.07.16.09.3.17.12.07.14.08.2.11.19.1.33.15.5.19.06.01.27.01.33,0,.08-.02.17-.04.2-.05,0,0,.02,0,.02,0,.01,0,.01,0,.09-.04.08-.03.16-.08.36-.2.1-.06.24-.14.31-.18.27-.15.34-.19.44-.25.13-.07.28-.16.43-.24.31-.17.35-.19.65-.39.24-.16.34-.21.57-.34.03-.02.09-.05.14-.08.04-.02.09-.05.1-.05.02,0,.15-.09.25-.14.13-.08.32-.18.52-.29.03-.02.07-.04.09-.05.02-.01.04-.03.06-.03.05-.03.13-.08.28-.16.2-.12.32-.19.54-.31.21-.12.2-.11.27-.15.05-.03.25-.15.31-.18.1-.06.25-.15.46-.27.21-.12.22-.13.44-.26.24-.14.35-.21.35-.21,0,0,.01,0,.02-.01.01,0,.03-.02.05-.03.1-.05.33-.19.48-.28.09-.05.18-.11.19-.11s.03-.02.04-.02c0,0,.01,0,.02,0s.02,0,.03-.02.03-.02.03-.02c0,0,.02-.01.04-.02.02-.01.04-.02.04-.02,0,0,.01,0,.02-.01.01,0,.04-.02.07-.04.03-.01.08-.04.12-.06s.09-.05.11-.06.05-.03.06-.03c.01,0,.03-.02.03-.02,0,0,.01,0,.03-.01.01,0,.06-.03.1-.06s.09-.05.11-.06c.12-.07.31-.18.52-.3.12-.06.19-.1.55-.33.16-.1.22-.13.5-.29.17-.09.29-.17.53-.31.1-.06.18-.1.32-.19.07-.04.14-.08.16-.09s.03-.02.03-.02c0,0,.02,0,.04-.02s.03-.02.04-.02c0,0,.25-.15.36-.21.17-.11.24-.14.47-.27.21-.11.38-.22.56-.32.06-.04.22-.13.25-.15.13-.07.43-.25.6-.35.14-.09.35-.2.5-.28.02-.01.06-.03.1-.05s.08-.04.09-.05c.06-.04.21-.12.33-.2.21-.13.32-.19.56-.33.25-.14.27-.15.43-.25.18-.11.25-.15.4-.23.2-.11.26-.15.36-.23.04-.03.14-.13.18-.18.08-.1.1-.18.1-.29,0-.09-.02-.16-.06-.24-.09-.15-.21-.25-.58-.52-.31-.22-.4-.29-.62-.45-.31-.23-.39-.29-.54-.39-.09-.06-.17-.12-.34-.24-.14-.1-.32-.22-.43-.3-.14-.1-.3-.21-.49-.35-.03-.02-.07-.05-.09-.07-.04-.03-.26-.18-.35-.25-.03-.02-.13-.09-.22-.16-.24-.18-.36-.27-.56-.4-.11-.08-.21-.14-.45-.31-.38-.27-.58-.37-.77-.42-.12-.03-.25-.03-.37,0-.07.01-.18.05-.24.08,0,0-.04.02-.07.03-.12.05-.32.16-.96.53-.02.01-.04.02-.04.02,0,0-.01,0-.03.01-.01,0-.05.03-.07.04-.28.15-.45.24-.62.35-.05.03-.12.07-.15.09-.06.03-.32.18-.37.21-.02,0-.04.02-.05.03-.01,0-.02.01-.02.01,0,0-.02,0-.03.02-.02.01-.03.02-.04.02,0,0-.13.08-.4.24-.06.04-.12.07-.13.08-.13.07-.24.14-.29.16-.14.08-.29.16-.49.28-.07.04-.13.08-.14.08,0,0-.04.02-.06.04-.03.01-.05.03-.06.04-.07.04-.2.12-.23.13-.02.01-.04.02-.05.03-.05.03-.33.19-.38.23-.02.01-.06.04-.08.05-.02.01-.06.04-.08.05-.12.07-.37.23-.46.27-.02,0-.03.02-.04.02,0,0-.02.01-.04.02-.06.03-.24.13-.33.19-.13.08-.19.11-.29.17-.08.05-.27.15-.27.15,0,0-.06.03-.13.07-.14.08-.31.17-.51.29-.07.04-.13.08-.14.08,0,0-.04.02-.06.04-.03.01-.05.03-.06.04,0,0-.04.02-.07.04-.12.07-.31.18-.35.21,0,0-.08.05-.15.09s-.14.09-.15.09c-.07.04-.09.06-.13.08-.03.01-.06.04-.08.05s-.04.02-.04.02c0,0-.02,0-.04.02s-.03.02-.04.02-.02,0-.04.02c-.03.02-.17.1-.22.12-.07.04-.24.14-.41.25-.07.05-.37.22-.39.24,0,0-.09.05-.18.11-.36.22-.5.29-.66.34-.11.03-.17.05-.29.06-.05,0-.2,0-.25,0-.17-.02-.28-.06-.44-.14-.1-.05-.17-.09-.34-.2-.07-.04-.15-.09-.17-.11-.07-.04-.23-.14-.36-.22-.06-.04-.16-.1-.21-.13-.11-.06-.33-.2-.34-.21-.01,0-.11-.06-.18-.11-.02-.01-.05-.03-.06-.04,0,0-.03-.01-.04-.02-.01,0-.02-.01-.02-.01,0,0-.02-.01-.04-.02-.02-.01-.05-.03-.07-.04-.05-.03-.18-.11-.29-.18-.12-.08-.31-.19-.4-.25-.14-.08-.39-.24-.55-.33-.2-.12-.24-.15-.24-.15,0,0-.02,0-.04-.02s-.03-.02-.04-.02c0,0-.02-.01-.05-.03-.03-.01-.1-.06-.16-.09-.06-.04-.13-.07-.14-.08-.06-.04-.39-.23-.49-.29,0,0-.11-.07-.23-.14-.12-.07-.26-.16-.31-.19-.05-.03-.11-.07-.12-.07s-.04-.03-.07-.05c-.06-.04-.05-.03-.21-.13q-.14-.09-.25-.15c-.11-.07-.34-.2-.51-.31-.17-.1-.33-.2-.42-.25-.02,0-.06-.03-.09-.05-.03-.02-.07-.04-.08-.05-.01,0-.05-.03-.07-.04-.03-.01-.07-.04-.1-.06-.03-.02-.13-.08-.23-.14-.15-.09-.37-.22-.44-.26-.14-.08-.23-.14-.46-.28-.22-.14-.35-.21-.57-.34-.06-.03-.23-.14-.38-.22-.15-.09-.32-.19-.38-.23-.26-.15-.31-.18-.6-.36-.21-.13-.33-.19-.45-.21-.07-.01-.17-.01-.22,0Z" style="fill:#1d1d1b; stroke-width:0px;"/><path d="m51.66,12.79h7.28v9.24c2.72-2.95,5.05-5.6,8.51-9.24h8.81l-9.68,9.44,10.2,12.97h-8.76l-6.51-8.89-2.57,2.35v6.54h-7.28V12.79Z" style="fill:#1d1d1b; stroke-width:0px;"/><path d="m84.67,31.03l-1.42,4.18h-7.31l8.48-22.41h9.5l9.03,22.41h-7.83l-1.52-4.18h-8.93Zm7.24-5.19c-1.46-4.03-2.31-6.58-2.87-8.46h-.11c-.49,1.86-1.48,5.04-2.67,8.46h5.65Z" style="fill:#1d1d1b; stroke-width:0px;"/><path d="m105.36,12.79h11.36c8.09,0,12.19,4.95,12.19,10.85,0,6.92-5.06,11.57-12.26,11.57h-11.28V12.79Zm7.29,17.38h3.15c3.61,0,5.42-2.18,5.42-6.36,0-3.44-1.43-5.96-5.41-6h-3.15v12.36Z" style="fill:#1d1d1b; stroke-width:0px;"/><path d="m156.26,27.6c-1.02,4.72-4.81,8.12-12.02,8.12-8.31,0-12.48-5.31-12.48-11.73s4.11-11.71,12.78-11.71c7.6,0,11.18,3.97,11.76,8.03h-7.35c-.32-1.24-1.24-3.08-4.45-3.08-3.4,0-5.08,2.67-5.08,6.6,0,3.57,1.33,6.87,5.1,6.87,2.72,0,3.83-1.19,4.47-3.1h7.25Z" style="fill:#1d1d1b; stroke-width:0px;"/><path d="m165.76,31.03l-1.42,4.18h-7.31l8.48-22.41h9.5l9.03,22.41h-7.83l-1.52-4.18h-8.93Zm7.24-5.19c-1.46-4.03-2.31-6.58-2.87-8.46h-.11c-.49,1.86-1.48,5.04-2.67,8.46h5.65Z" style="fill:#1d1d1b; stroke-width:0px;"/><path d="m193.62,26.96v8.25h-7.15V12.79h13.55c5.57,0,8.48,2.72,8.48,6.44,0,2.89-1.67,4.61-3.87,5.37,1.21.52,3.27,1.59,3.27,5.39v1.21c0,1.27,0,2.91.31,4h-7.25c-.37-.94-.46-2.32-.46-4.64v-.75c0-2.08-.67-2.85-3.49-2.85h-3.4Zm0-4.66h4.46c1.98,0,3.09-.72,3.09-2.34,0-1.49-1.02-2.34-3.1-2.34h-4.46v4.68Z" style="fill:#1d1d1b; stroke-width:0px;"/><path d="m218.2,28.46c.47,1.48,1.62,2.6,4.54,2.6,2.59,0,3.39-.78,3.39-1.89,0-1.19-.72-1.89-4.92-2.62-8.28-1.45-9.47-4.27-9.47-7.23,0-4.43,4.17-7.02,10.3-7.02,7.45,0,10.45,3.45,10.74,6.76h-7.08c-.25-1-.89-2.14-3.67-2.14-1.97,0-2.91.64-2.91,1.69s.94,1.52,4.41,2.15c8.47,1.52,10.11,4.18,10.11,7.55,0,4.28-3.6,7.39-11.21,7.39s-10.86-3.19-11.53-7.24h7.29Z" style="fill:#1d1d1b; stroke-width:0px;"/></g></svg>