<?xml version="1.0" standalone="no"?>
<!DOCTYPE svg PUBLIC "-//W3C//DTD SVG 20010904//EN"
 "http://www.w3.org/TR/2001/REC-SVG-20010904/DTD/svg10.dtd">
<svg version="1.0" xmlns="http://www.w3.org/2000/svg"
 width="9975.000000pt" height="14998.000000pt" viewBox="0 0 9975.000000 14998.000000"
 preserveAspectRatio="xMidYMid meet">

<g transform="translate(0.000000,14998.000000) scale(0.100000,-0.100000)"
fill="#000000" stroke="none">
<path d="M47510 134924 c-187 -16 -435 -84 -675 -186 -181 -77 -338 -161 -775
-418 -172 -101 -276 -160 -415 -235 -38 -21 -74 -41 -80 -45 -5 -4 -59 -33
-120 -65 -419 -220 -835 -446 -1295 -703 -25 -13 -238 -130 -473 -259 -645
-352 -800 -442 -1372 -800 -311 -194 -666 -409 -870 -528 -182 -106 -436 -256
-745 -440 -168 -100 -361 -215 -430 -255 -263 -153 -262 -153 -820 -465 -221
-124 -377 -215 -765 -447 -282 -169 -513 -303 -638 -372 -26 -14 -152 -83
-280 -152 -398 -216 -421 -229 -547 -302 -52 -30 -109 -63 -127 -73 -18 -10
-85 -51 -150 -90 -65 -40 -136 -83 -158 -96 -22 -13 -78 -48 -125 -78 -192
-121 -659 -405 -666 -405 -3 0 -21 -11 -42 -23 -20 -13 -59 -36 -87 -52 -27
-15 -111 -61 -185 -103 -74 -41 -182 -101 -240 -132 -155 -84 -237 -129 -313
-172 -38 -21 -70 -38 -72 -38 -2 0 -42 -22 -90 -50 -48 -27 -88 -50 -90 -50
-1 0 -67 -37 -146 -82 -123 -69 -242 -136 -504 -283 -289 -162 -824 -474
-1010 -589 -49 -30 -108 -66 -130 -79 -54 -32 -431 -264 -475 -292 -112 -72
-755 -449 -960 -563 -25 -13 -49 -28 -55 -32 -5 -4 -30 -19 -55 -32 -68 -38
-232 -133 -355 -206 -60 -36 -123 -73 -140 -82 -16 -10 -93 -55 -170 -100
-168 -99 -593 -341 -760 -432 -444 -243 -658 -363 -850 -476 -60 -36 -123 -73
-140 -82 -16 -10 -138 -81 -270 -160 -226 -135 -557 -326 -690 -400 -738 -409
-1448 -868 -1820 -1178 -610 -509 -808 -1008 -852 -2147 -10 -255 -10 -1229 1
-3425 6 -1129 5 -2701 -3 -4453 -16 -3702 -7 -4067 106 -4547 37 -160 117
-341 197 -447 46 -61 182 -193 198 -193 5 0 25 -11 46 -25 20 -13 64 -34 97
-46 345 -122 744 -23 1345 334 47 28 173 105 280 172 366 228 593 361 1055
620 323 181 400 225 977 562 731 425 864 506 1478 893 203 128 385 239 505
307 241 138 285 163 335 190 265 146 572 321 648 369 29 19 54 34 57 34 2 0
39 22 82 49 386 242 881 546 983 603 63 36 462 268 610 356 80 47 296 177 480
290 514 314 593 362 755 457 494 289 776 462 1135 697 160 104 356 230 410
262 25 15 74 45 110 68 86 53 466 281 655 393 83 48 202 119 265 158 587 356
897 536 1480 855 36 19 82 46 102 59 21 13 40 23 43 23 2 0 34 18 70 40 36 22
67 40 69 40 8 0 343 204 651 397 369 230 503 310 995 593 348 200 700 416
1180 725 144 93 605 373 1277 777 124 74 150 90 293 178 74 45 164 101 200
123 96 59 560 337 595 357 33 19 454 269 610 363 55 33 118 70 140 82 22 13
99 56 170 97 119 67 416 218 429 218 4 0 25 9 49 20 269 124 631 200 952 200
160 0 251 -9 435 -42 103 -18 154 -30 258 -59 84 -24 99 -28 127 -37 39 -13
227 -88 285 -114 242 -110 415 -203 875 -466 149 -85 290 -166 315 -180 25
-14 103 -58 173 -98 71 -41 130 -74 132 -74 2 0 122 -68 266 -151 324 -186
280 -160 549 -319 124 -73 239 -141 255 -150 17 -10 98 -57 180 -105 83 -48
173 -100 200 -115 28 -16 101 -58 164 -94 62 -36 115 -66 117 -66 2 0 33 -18
69 -40 36 -22 67 -40 70 -40 3 0 34 -18 70 -40 36 -22 67 -40 70 -40 2 0 32
-17 67 -39 35 -21 158 -95 273 -164 116 -68 242 -144 280 -168 119 -72 448
-271 480 -289 17 -10 66 -39 110 -65 44 -26 94 -56 110 -65 17 -10 98 -57 180
-105 83 -48 168 -97 190 -109 120 -68 572 -335 945 -558 234 -140 445 -266
470 -280 25 -14 108 -61 185 -105 77 -44 217 -122 310 -173 94 -51 195 -106
225 -123 30 -16 85 -47 122 -68 36 -22 69 -39 71 -39 3 0 69 -37 148 -82 152
-86 168 -95 267 -152 34 -20 88 -51 120 -69 31 -19 188 -110 347 -204 250
-146 567 -330 685 -395 131 -74 650 -386 905 -545 146 -92 491 -300 594 -360
177 -103 326 -189 371 -215 175 -99 267 -154 510 -300 151 -91 343 -208 425
-260 83 -52 177 -110 210 -130 33 -19 92 -55 130 -78 151 -93 345 -205 530
-305 39 -21 75 -41 80 -45 6 -4 55 -31 110 -60 55 -29 105 -56 110 -60 6 -4
51 -29 100 -55 50 -26 142 -77 205 -113 63 -36 129 -73 145 -82 94 -53 409
-238 460 -269 33 -21 80 -49 105 -63 25 -14 119 -69 209 -122 90 -53 165 -96
168 -96 3 0 17 -8 31 -18 15 -11 54 -34 87 -51 33 -18 89 -50 125 -71 75 -43
267 -152 355 -200 33 -18 96 -55 140 -81 44 -25 96 -56 115 -66 19 -11 193
-115 385 -230 386 -232 682 -401 1000 -573 244 -131 507 -278 685 -380 136
-79 143 -83 275 -160 700 -409 1353 -762 1655 -894 47 -21 99 -44 115 -51 93
-41 311 -107 403 -121 20 -3 40 -8 44 -10 39 -24 528 -24 566 0 4 2 25 7 47
10 22 4 64 13 92 21 29 9 55 15 58 15 9 0 149 52 235 87 106 44 274 128 375
188 42 25 79 45 82 45 2 0 24 14 48 30 24 17 46 30 50 30 11 0 387 246 680
446 160 108 414 280 565 382 522 352 760 519 1020 716 650 493 734 554 1199
876 271 187 395 275 711 503 403 291 567 409 731 524 101 71 216 152 254 180
39 27 291 207 560 398 836 594 1179 845 1725 1265 180 137 715 528 1094 799
240 171 507 369 636 470 151 120 309 269 392 371 345 422 329 867 -45 1295
-193 221 -386 360 -1087 782 -228 137 -502 302 -609 367 -197 120 -511 306
-517 306 -1 0 -37 20 -78 45 -42 25 -78 45 -81 45 -2 0 -30 15 -62 34 -32 18
-89 50 -128 71 -135 73 -431 239 -560 313 -138 79 -174 101 -575 344 -140 85
-345 207 -455 270 -221 127 -209 121 -520 291 -266 146 -626 351 -870 497
-167 100 -494 287 -815 468 -493 278 -669 382 -1085 642 -392 245 -590 363
-963 574 -294 166 -430 246 -777 454 -501 302 -627 374 -1165 667 -348 190
-423 233 -920 530 -637 380 -643 383 -1115 640 -331 180 -822 462 -1150 660
-70 42 -425 247 -520 300 -27 15 -192 106 -365 203 -173 96 -413 231 -534 299
-120 69 -239 136 -265 150 -25 15 -63 37 -83 50 -21 12 -40 23 -43 23 -3 0
-23 11 -44 25 -22 13 -207 117 -413 231 -702 389 -845 472 -1248 722 -102 63
-248 154 -325 202 -200 124 -341 208 -765 458 -311 182 -695 411 -908 541
-216 132 -532 318 -923 541 -256 147 -611 355 -790 462 -570 342 -766 454
-1319 751 -298 160 -575 318 -1005 575 -413 247 -596 354 -995 582 -157 89
-334 192 -395 228 -60 36 -123 73 -140 82 -16 9 -111 66 -210 125 -155 93
-284 168 -605 355 -36 21 -139 79 -230 130 -543 304 -820 468 -1200 710 -635
404 -887 553 -1665 980 -102 56 -484 260 -610 325 -71 37 -143 75 -160 85 -16
9 -88 48 -160 85 -299 156 -590 319 -895 500 -503 300 -760 431 -975 500 -87
27 -183 53 -240 65 -33 6 -80 16 -105 22 -46 10 -388 19 -470 12z"/>
<path d="M19519 119036 c-2 -2 -29 -7 -59 -11 -79 -9 -246 -59 -390 -116 -126
-49 -476 -221 -656 -322 -720 -401 -1007 -568 -1569 -914 -71 -44 -191 -118
-265 -163 -74 -46 -164 -101 -200 -123 -36 -22 -153 -92 -260 -157 -107 -64
-357 -215 -555 -335 -459 -278 -1113 -671 -1275 -765 -376 -219 -597 -351
-960 -572 -314 -191 -513 -306 -827 -476 -134 -73 -352 -191 -485 -264 -274
-149 -455 -253 -943 -543 -301 -179 -528 -312 -635 -372 -69 -40 -407 -237
-475 -278 -223 -135 -327 -199 -470 -290 -425 -270 -558 -352 -775 -485 -417
-254 -492 -301 -695 -435 -521 -346 -819 -620 -1049 -965 -120 -180 -248 -473
-295 -672 -53 -226 -66 -324 -97 -698 -14 -173 -19 -1451 -19 -5080 0 -2153 4
-4111 10 -4450 6 -355 9 -2314 8 -4745 -1 -2277 -4 -9562 -7 -16190 -3 -7474
-2 -12312 4 -12740 10 -653 16 -837 41 -1070 63 -613 244 -1074 568 -1445 102
-117 298 -300 385 -359 12 -8 23 -17 26 -21 26 -30 303 -215 655 -437 286
-181 426 -270 700 -450 263 -173 359 -235 510 -328 77 -48 156 -98 175 -110
39 -25 661 -396 930 -555 96 -56 195 -115 220 -130 48 -29 364 -210 440 -252
25 -14 122 -67 215 -118 564 -308 803 -446 1335 -772 284 -174 660 -393 912
-532 54 -29 176 -99 413 -236 92 -53 363 -218 600 -365 343 -213 485 -299 875
-525 173 -100 486 -285 695 -410 451 -270 554 -330 1085 -635 223 -127 486
-279 585 -337 475 -279 790 -445 975 -517 47 -18 108 -41 135 -52 168 -64 375
-99 560 -95 292 7 476 94 650 307 56 68 155 248 155 281 0 9 4 19 9 22 5 3 11
16 14 28 3 13 15 59 26 103 104 387 117 702 106 2495 -7 1069 -15 5250 -19
9625 -1 1096 19 1526 94 1940 5 33 13 75 16 94 3 19 10 45 15 58 5 13 7 23 5
23 -2 0 5 33 15 73 11 39 22 80 24 90 25 108 128 369 199 502 203 382 474 680
1071 1175 64 53 267 224 386 325 364 309 556 460 1184 929 303 227 617 461
699 521 390 288 855 639 1086 821 230 180 454 354 849 657 73 56 305 236 515
401 469 368 696 539 1216 916 223 161 428 310 455 330 168 124 409 284 590
393 293 177 627 316 875 365 30 6 80 17 110 24 35 8 131 12 270 12 192 -1 228
-3 337 -27 330 -70 686 -234 1153 -530 222 -141 881 -593 1131 -776 239 -175
341 -251 405 -301 39 -30 86 -66 104 -80 41 -31 338 -265 365 -288 130 -109
611 -472 1045 -787 173 -126 495 -364 715 -529 220 -164 432 -322 470 -351
171 -127 308 -227 403 -296 56 -41 149 -108 206 -149 317 -230 626 -453 676
-487 168 -116 758 -551 941 -694 31 -24 71 -55 89 -69 18 -14 87 -67 153 -118
104 -81 580 -439 782 -588 39 -28 306 -222 595 -431 289 -208 574 -415 633
-459 60 -43 130 -95 157 -114 27 -19 140 -104 252 -189 433 -329 731 -552 928
-692 113 -80 300 -212 415 -294 227 -161 478 -347 903 -671 70 -54 139 -107
153 -118 14 -12 39 -31 55 -43 108 -80 368 -273 464 -343 63 -46 165 -120 225
-165 61 -44 121 -88 135 -97 27 -19 144 -104 397 -289 87 -63 241 -176 343
-249 102 -74 197 -143 212 -155 15 -11 46 -34 70 -51 53 -38 717 -534 738
-551 20 -17 383 -289 507 -380 54 -40 148 -108 208 -152 61 -45 157 -116 215
-158 58 -42 272 -201 475 -353 204 -152 438 -325 520 -385 83 -59 173 -125
200 -145 28 -21 140 -102 250 -182 110 -79 270 -196 355 -259 138 -102 256
-189 525 -387 44 -32 256 -182 470 -332 215 -151 451 -316 525 -368 671 -471
968 -619 1420 -708 108 -22 470 -25 575 -6 208 39 333 70 450 112 361 132 525
216 1214 624 117 69 214 126 216 126 2 0 57 31 124 69 66 38 151 86 188 107
37 20 124 68 193 107 69 38 153 85 188 104 35 19 118 66 185 105 67 39 136 78
152 88 17 9 170 100 340 202 461 275 618 364 1090 613 290 154 376 200 420
225 17 10 62 34 100 55 39 21 99 55 135 75 57 33 506 289 615 350 53 30 443
248 520 290 320 177 640 365 885 520 332 209 664 414 815 500 17 10 68 40 115
67 47 27 117 66 155 88 238 130 706 406 960 565 282 177 819 500 831 500 2 0
33 18 69 40 36 22 67 40 69 40 6 0 238 135 436 253 410 245 633 410 835 619
122 125 148 158 214 274 78 134 103 222 109 376 3 101 0 144 -14 200 -52 215
-172 398 -422 646 -182 180 -334 306 -842 697 -135 103 -432 337 -660 519
-600 479 -774 607 -1340 991 -80 54 -172 117 -205 140 -131 91 -784 542 -1030
710 -275 188 -625 437 -812 576 -62 46 -203 152 -314 234 -112 83 -253 187
-313 232 -192 142 -516 386 -590 444 -232 181 -625 481 -776 591 -234 171
-769 559 -796 578 -13 8 -98 69 -191 136 -209 150 -338 240 -618 429 -361 243
-462 313 -638 439 -93 67 -182 130 -197 141 -16 11 -135 99 -265 195 -130 96
-249 184 -265 195 -95 65 -658 481 -900 664 -545 412 -670 504 -1036 761 -160
112 -345 244 -1003 715 -108 78 -275 197 -371 265 -518 367 -710 507 -1010
741 -484 376 -769 587 -1275 944 -77 54 -169 120 -205 145 -36 26 -144 102
-240 170 -96 68 -227 160 -290 205 -63 45 -137 98 -165 117 -97 67 -352 252
-548 397 -360 266 -586 428 -962 691 -726 508 -1470 1050 -1665 1213 -281 234
-452 431 -560 647 -237 470 -170 965 186 1390 172 206 359 359 974 798 162
116 313 224 335 240 22 16 238 168 480 337 546 383 456 317 1065 772 533 397
534 398 1240 913 113 82 232 168 264 192 33 24 201 141 375 260 174 119 380
261 459 315 79 54 279 196 445 316 559 403 548 395 1277 888 179 121 399 271
490 334 91 63 298 203 460 312 295 197 647 438 770 526 64 45 160 116 557 408
189 139 363 263 758 542 247 174 263 186 665 486 528 394 670 493 1350 950
917 615 1147 778 1777 1262 160 123 340 259 400 303 59 43 126 92 148 108 56
42 247 175 635 443 184 127 416 288 515 357 99 68 383 262 630 430 248 167
551 376 675 463 217 153 716 500 890 620 138 96 516 366 640 458 63 47 187
139 275 205 181 135 479 355 611 451 254 185 310 227 473 355 183 145 426 374
515 486 115 143 198 298 235 440 26 100 26 275 0 380 -30 116 -124 297 -188
361 -9 9 -41 46 -71 83 -51 63 -196 196 -300 276 -25 19 -47 37 -50 40 -9 9
-111 85 -205 152 -193 138 -477 322 -885 573 -452 277 -606 375 -995 630 -310
203 -572 367 -1030 645 -205 125 -272 166 -715 442 -379 236 -607 374 -865
523 -93 54 -198 115 -233 136 -35 22 -65 39 -67 39 -4 0 -334 195 -440 260
-38 23 -101 61 -140 85 -38 23 -243 150 -455 281 -212 132 -400 249 -418 260
-145 85 -792 479 -852 519 -145 95 -717 442 -850 517 -38 21 -605 346 -695
398 -66 38 -300 183 -475 295 -345 221 -401 255 -540 335 -133 76 -324 174
-420 215 -25 10 -63 26 -85 36 -122 52 -376 125 -560 160 -96 18 -466 19 -560
0 -104 -20 -265 -62 -310 -81 -11 -4 -58 -23 -105 -41 -260 -100 -569 -289
-1080 -658 -80 -57 -271 -194 -425 -304 -347 -247 -873 -625 -965 -692 -38
-27 -117 -86 -177 -129 -59 -44 -367 -265 -683 -491 -316 -226 -601 -430 -633
-453 -108 -81 -491 -348 -842 -589 -496 -340 -678 -469 -1295 -918 -47 -34
-182 -131 -300 -215 -349 -249 -447 -321 -883 -646 -170 -126 -345 -256 -390
-290 -226 -168 -851 -636 -988 -741 -85 -65 -171 -130 -190 -144 -39 -30 -187
-139 -306 -225 -84 -61 -149 -107 -413 -293 -277 -196 -529 -380 -790 -576
-187 -141 -609 -449 -890 -650 -129 -92 -257 -184 -285 -205 -27 -20 -331
-241 -675 -490 -344 -250 -890 -652 -1215 -894 -667 -497 -675 -502 -880 -651
-82 -59 -172 -124 -200 -145 -27 -20 -78 -56 -113 -81 -34 -24 -82 -58 -105
-75 -118 -87 -540 -378 -817 -563 -369 -247 -664 -454 -983 -689 -40 -28 -99
-72 -132 -95 -373 -269 -967 -712 -1270 -947 -414 -321 -717 -543 -1540 -1125
-115 -81 -235 -166 -265 -187 -30 -22 -131 -94 -225 -160 -298 -210 -440 -314
-895 -653 -456 -340 -631 -466 -920 -665 -352 -242 -523 -363 -994 -704 -164
-119 -256 -184 -311 -223 -185 -129 -745 -528 -930 -663 -57 -41 -215 -156
-352 -256 -202 -147 -554 -400 -1058 -760 -33 -24 -114 -82 -180 -130 -133
-96 -154 -111 -335 -239 -146 -104 -238 -167 -358 -250 -239 -165 -408 -284
-625 -439 -131 -94 -253 -181 -270 -193 -18 -12 -82 -59 -144 -105 -61 -46
-194 -144 -295 -217 -199 -146 -489 -361 -608 -450 -41 -31 -84 -63 -96 -71
-12 -8 -98 -71 -191 -140 -167 -123 -442 -311 -499 -340 -16 -8 -31 -18 -34
-21 -20 -23 -309 -148 -390 -169 -19 -5 -64 -16 -100 -25 -78 -20 -285 -28
-355 -14 -27 6 -60 12 -73 15 -48 10 -175 66 -236 104 -131 83 -272 259 -347
432 -77 180 -111 328 -151 658 -15 129 -25 11785 -18 21515 2 4187 2 4290 -30
4645 -42 460 -144 734 -347 931 -155 150 -310 209 -554 209 -64 0 -118 -2
-120 -4z"/>
<path d="M26176 68859 c-138 -40 -205 -81 -317 -196 -183 -187 -275 -445 -318
-888 -31 -317 -39 -1014 -40 -3475 -1 -1191 -4 -3096 -7 -4235 -6 -2113 7
-4642 26 -4830 31 -322 45 -418 86 -585 136 -554 415 -932 1019 -1380 173
-129 286 -205 490 -331 226 -141 387 -234 590 -344 39 -21 84 -45 100 -55 17
-10 62 -34 100 -55 39 -21 165 -91 280 -155 116 -64 237 -132 270 -150 33 -18
65 -36 70 -40 6 -4 30 -19 55 -32 25 -14 171 -99 325 -188 384 -223 572 -329
840 -475 39 -21 96 -53 128 -71 32 -19 60 -34 62 -34 2 0 26 -13 52 -28 26
-16 80 -46 118 -67 99 -54 351 -200 704 -407 167 -98 305 -178 308 -178 3 0
17 -8 31 -18 15 -11 56 -35 92 -54 36 -20 117 -65 180 -100 63 -36 142 -80
175 -98 33 -18 91 -50 128 -71 38 -22 70 -39 72 -39 16 0 559 -322 865 -513
497 -311 678 -416 1200 -697 458 -247 745 -408 1185 -665 50 -29 281 -164 515
-300 234 -136 603 -354 820 -485 418 -251 543 -325 600 -357 19 -11 78 -45
130 -75 52 -30 115 -66 140 -80 25 -14 101 -56 170 -95 69 -38 152 -85 185
-103 33 -18 65 -36 70 -40 6 -4 37 -22 70 -40 140 -75 421 -240 640 -375 61
-38 178 -109 260 -160 83 -50 187 -115 233 -143 46 -29 85 -52 87 -52 2 0 32
-17 66 -38 77 -47 370 -216 454 -262 51 -28 140 -78 354 -198 25 -14 67 -38
93 -53 27 -16 51 -29 53 -29 3 0 34 -18 70 -40 36 -22 67 -40 69 -40 2 0 77
-43 167 -96 90 -53 182 -106 204 -119 22 -12 114 -65 205 -117 91 -52 188
-107 215 -123 130 -72 234 -130 280 -155 87 -48 149 -82 180 -100 33 -19 100
-57 185 -103 157 -85 439 -255 827 -499 428 -268 628 -385 1103 -646 252 -138
337 -186 1135 -644 271 -155 400 -227 835 -463 257 -139 314 -171 590 -328
241 -136 267 -151 381 -212 375 -201 638 -300 966 -362 115 -22 533 -25 638
-4 158 30 333 76 390 101 11 5 31 12 45 15 26 8 29 9 180 75 148 65 316 156
700 380 195 114 465 269 600 345 525 295 655 368 860 487 244 141 542 310 835
473 597 332 674 378 1270 760 471 302 662 417 1105 667 63 36 183 104 265 150
83 47 167 95 187 107 30 16 293 170 483 281 254 150 623 357 1020 573 61 33
139 76 175 97 36 20 85 49 110 62 96 54 256 148 540 318 390 233 623 368 1045
602 402 224 399 222 525 296 100 58 489 291 601 360 197 121 491 293 899 527
417 239 433 249 866 507 465 279 684 408 690 408 3 0 21 11 42 23 20 13 64 39
97 57 188 104 643 368 925 538 179 107 345 206 370 220 25 14 57 33 72 43 14
11 29 19 32 19 3 0 30 16 60 35 30 19 57 35 60 35 2 0 39 20 80 45 42 25 79
45 81 45 3 0 22 10 43 23 20 13 78 45 127 72 50 26 153 83 230 125 77 42 169
93 205 112 36 19 89 49 118 67 29 17 55 31 57 31 3 0 26 13 52 28 27 16 113
66 193 112 80 46 177 102 215 125 236 141 598 346 1015 575 227 125 361 204
1075 637 312 189 435 259 970 555 329 183 574 326 1040 610 196 119 342 204
625 363 135 75 271 152 303 171 32 19 60 34 63 34 2 0 33 18 69 40 36 22 67
40 69 40 5 0 494 288 706 417 339 205 473 282 915 528 402 223 743 420 1085
625 123 74 421 249 485 284 246 137 838 480 1170 678 282 168 685 398 970 553
39 21 124 68 190 105 66 37 147 82 180 100 124 69 406 237 649 387 411 255
617 377 1086 640 492 277 518 292 840 483 351 207 484 285 780 455 387 222
506 297 710 447 78 57 280 260 341 341 148 197 202 351 201 572 0 184 -33 306
-124 459 -168 284 -403 494 -1123 1006 -601 427 -782 559 -1205 875 -601 449
-765 568 -1045 760 -169 115 -330 228 -655 460 -276 197 -617 436 -839 590
-268 185 -593 416 -950 677 -58 43 -140 102 -181 132 -82 59 -501 360 -675
485 -60 44 -249 183 -420 311 -477 355 -704 518 -1085 775 -220 148 -405 275
-880 603 -748 517 -1130 726 -1500 823 -226 59 -495 65 -730 18 -127 -26 -358
-101 -473 -153 -17 -8 -83 -38 -145 -66 -237 -107 -619 -318 -1874 -1036 -43
-24 -80 -44 -82 -44 -3 0 -27 -13 -53 -28 -26 -16 -88 -50 -138 -77 -550 -294
-872 -474 -1215 -678 -102 -60 -232 -138 -290 -172 -110 -65 -622 -358 -725
-415 -33 -18 -77 -44 -97 -57 -21 -12 -40 -23 -43 -23 -2 0 -33 -17 -67 -38
-35 -21 -67 -41 -73 -43 -18 -7 -261 -152 -775 -462 -118 -71 -228 -137 -245
-147 -247 -141 -472 -269 -560 -317 -281 -154 -559 -313 -945 -541 -135 -79
-258 -152 -275 -162 -16 -10 -70 -41 -120 -70 -49 -29 -105 -61 -124 -72 -144
-82 -398 -227 -451 -258 -36 -21 -83 -48 -105 -60 -90 -50 -635 -375 -745
-445 -47 -29 -119 -74 -160 -100 -41 -25 -113 -70 -160 -100 -225 -142 -730
-441 -905 -535 -33 -18 -64 -36 -70 -40 -5 -4 -37 -22 -70 -40 -111 -61 -458
-262 -635 -368 -245 -147 -371 -221 -555 -325 -158 -89 -524 -287 -531 -287
-2 0 -117 -61 -256 -136 -277 -149 -608 -340 -988 -569 -135 -82 -258 -156
-275 -165 -16 -10 -70 -41 -120 -70 -49 -29 -103 -60 -120 -70 -16 -9 -75 -43
-130 -75 -239 -138 -599 -351 -675 -400 -19 -12 -150 -93 -290 -180 -140 -87
-271 -168 -290 -180 -131 -82 -175 -109 -255 -155 -49 -29 -123 -72 -163 -96
-40 -24 -75 -44 -77 -44 -3 0 -34 -18 -70 -40 -36 -22 -68 -40 -71 -40 -3 0
-36 -17 -72 -39 -62 -36 -335 -190 -427 -241 -136 -76 -468 -273 -805 -480
-146 -90 -712 -430 -763 -459 -18 -10 -176 -105 -352 -211 -707 -425 -969
-560 -1290 -665 -207 -67 -328 -94 -568 -125 -101 -13 -388 -13 -480 0 -337
48 -546 113 -852 264 -203 100 -325 170 -668 382 -142 87 -295 182 -340 210
-127 78 -449 273 -692 419 -121 73 -305 185 -410 248 -206 126 -638 385 -670
403 -22 12 -217 125 -355 206 -47 28 -99 58 -117 69 -17 10 -50 29 -72 43 -22
15 -43 26 -45 26 -3 0 -40 22 -83 48 -43 27 -103 64 -133 82 -102 62 -343 213
-560 352 -234 149 -601 377 -775 480 -265 158 -765 460 -1065 643 -396 241
-469 285 -475 285 -3 0 -34 18 -70 40 -36 22 -67 40 -70 40 -2 0 -46 24 -97
54 -51 29 -194 110 -318 178 -124 69 -247 138 -275 153 -125 70 -753 449 -945
570 -19 12 -222 134 -450 270 -228 137 -502 303 -608 369 -106 67 -210 132
-232 146 -22 14 -85 54 -140 90 -112 73 -97 63 -402 254 -271 169 -271 169
-488 296 -221 130 -657 390 -1000 597 -325 197 -638 380 -825 483 -33 18 -109
61 -170 95 -60 35 -132 75 -160 90 -27 16 -92 52 -142 82 -51 29 -137 78 -190
109 -54 31 -255 151 -448 267 -286 172 -715 425 -860 507 -270 153 -457 265
-905 540 -428 263 -685 416 -1110 660 -118 68 -449 264 -735 435 -286 172
-621 369 -745 440 -507 288 -602 344 -1177 693 -414 252 -651 362 -883 412
-128 27 -336 27 -434 -1z"/>
</g>
</svg>
