<?xml version="1.0" encoding="utf-8"?>
<!-- Generator: Adobe Illustrator 27.3.1, SVG Export Plug-In . SVG Version: 6.00 Build 0)  -->
<svg version="1.1" id="Layer_1" xmlns="http://www.w3.org/2000/svg" xmlns:xlink="http://www.w3.org/1999/xlink" x="0px" y="0px"
	 viewBox="0 0 2175 800" style="enable-background:new 0 0 2175 800;" xml:space="preserve">
<style type="text/css">
	.st0{fill:url(#SVGID_1_);}
	.st1{fill:#444445;}
	.st2{fill:#F15A27;}
</style>
<g>
	<g>
		<linearGradient id="SVGID_1_" gradientUnits="userSpaceOnUse" x1="418.9076" y1="694.217" x2="418.9076" y2="29.2607">
			<stop  offset="5.019478e-02" style="stop-color:#8C371F"/>
			<stop  offset="0.8279" style="stop-color:#F15B24"/>
		</linearGradient>
		<path class="st0" d="M229.9,268.6c-52.6,0-105.1,0-157.7,0c-1,0-2.1,0-3.1,0c-2.3,0.1-2.9-0.7-2.1-3c3.5-9.8,7.5-19.3,11.9-28.7
			c12.6-27.1,28.5-52.3,47.5-75.3c24.5-29.8,53.1-55,85.7-75.7c26.4-16.7,54.5-29.9,84.3-39.4c26.7-8.5,54-14,81.9-16.1
			c15.8-1.2,31.6-1.5,47.4-0.9c30.6,1.2,60.6,6.4,89.9,15.3c44.4,13.4,84.9,34.6,121.2,63.4c44,35,78.1,78,101.9,129
			c15.7,33.5,25.6,68.8,30,105.6c2,17.3,2.8,34.6,2.3,51.9c-0.9,30-5.5,59.4-14,88.2c-13.6,46.3-36.1,88-66.8,125.2
			c-28.8,34.9-63.2,63.1-102.6,85.3c-2.1,1.2-3.3,1.1-4.9-0.9c-19.6-25.4-39.3-50.8-59-76.2c-32.7-42.3-65.4-84.6-98.1-126.9
			c-8.5-11-17-21.9-25.4-32.9c-0.5-0.7-1.6-1.4-1-2.4c0.5-0.9,1.7-0.5,2.6-0.5c17-0.7,34-1.7,50.6-6.3c29.4-8.1,51.1-25.5,60.7-55
			c8.1-25.1,7.5-50.3-4.6-74.2c-10.3-20.2-26.8-33.6-48-41.4c-11-4-22.5-5.6-34.1-6.3c-57.8-3.5-115.7-1.1-173.6-1.8
			C245,268.5,237.5,268.6,229.9,268.6z M661.6,319.5c5.5,0,11.1-0.1,16.6,0c2.5,0.1,3.3-0.6,2.5-3.2c-5.4-18.9-12.4-37.2-21.5-54.6
			c-16.5-31.5-38-59.1-64.8-82.6c-22.3-19.5-46.9-35.1-74.1-46.9c-34.4-15-70.5-22.4-107.9-23.1c-13.4-0.3-26.6,0.7-39.9,2.3
			c-29.3,3.5-57.2,11.7-83.9,24.2c-25.2,11.8-48.1,26.9-68.8,45.5c-18.8,16.9-35.2,35.8-48.9,57.1c-0.5,0.8-1.6,1.6-1,2.7
			c0.5,0.8,1.7,0.5,2.6,0.5c13.3,0,26.7,0,40,0.1c2.2,0,3.6-0.7,4.9-2.4c9.5-12,20.2-23,31.8-32.9c23-19.7,48.8-34.6,77.4-44.8
			c36.5-13,73.9-16.5,112.2-12c24.2,2.8,47.4,9.5,69.6,19.6c41,18.6,74.2,46.5,100.1,83.1c13.9,19.7,24.5,41,31.8,64
			c0.9,2.8,2.3,3.7,5.1,3.5C650.9,319.3,656.3,319.5,661.6,319.5z M678.3,475.1c0.7-3.2-1.1-2.7-2.3-2.7c-11.3,0-22.6,0-33.9-0.1
			c-2.5,0-3.6,0.8-4.4,3.2c-4.2,11.8-9.4,23.2-15.5,34.1c-19.3,34.6-45.5,63.1-78.5,85.2c-2.1,1.4-2.3,2.5-0.8,4.6
			c6,8.7,11.9,17.4,17.7,26.2c1.4,2.2,2.5,2.4,4.6,1c21.3-14.3,40.4-31.3,57.2-50.7c22-25.4,38.7-53.9,50.6-85.3
			C675,485.2,676.7,479.8,678.3,475.1z"/>
		<path class="st1" d="M238.5,302.3c58.6,0,117.2-0.1,175.8,0.1c11.3,0,22.6,1.3,33.2,5.6c20.4,8.2,31.7,23.9,34.6,45.3
			c2.6,19-3.3,35.6-16.7,49.2c-9.1,9.2-20.8,13.8-33.4,15.8c-11.3,1.8-22.6,2.5-34,2.5c-19.3-0.1-38.6,0-57.9,0
			c-2.4,0-4.7-0.3-7.1-0.4c-1,0-2.3,0-2.7,1c-0.4,0.9,0.7,1.6,1.2,2.3c8.6,10.9,17.2,21.7,25.7,32.6
			c37.2,47.9,74.5,95.7,111.6,143.7c27.5,35.4,54.9,70.9,82.3,106.4c2.8,3.6,2.8,3.6-1.4,5.3c-31.2,13.2-63.8,21.3-97.3,25.5
			c-20.9,2.6-42,2.7-63,1.9c-32.6-1.3-64.4-7.4-95.3-17.6C249,706.7,208.2,684,172,653.3c-40.2-34.1-71.6-75-93.7-122.8
			c-15-32.4-24.6-66.5-29.3-102c-2.7-20.4-2.9-40.9-2.3-61.4c0.7-20.7,3.9-41,8.3-61.2c0.6-2.8,1.8-3.7,4.6-3.6
			c15.3,0.1,30.6,0,45.9,0C149.8,302.3,194.2,302.3,238.5,302.3C238.5,302.3,238.5,302.3,238.5,302.3z M151.3,332.1
			c-5.1,0-10.3,0.2-15.4-0.1c-3.1-0.1-4.3,0.8-4.8,3.9c-4,22.5-6.2,45.1-5,68c0.8,15.3,2.4,30.5,5.6,45.5c6.1,28.9,16.4,56.3,31,82
			c16.1,28.2,36.4,52.9,60.9,74.1c21.9,18.9,46.1,34.1,72.7,45.6c34.4,14.9,70.3,22.1,107.6,23.1c11.9,0.3,23.8-0.6,35.6-1.8
			c13.2-1.4,26.2-3.6,39-7c2.5-0.7,2.9-1.6,1.4-3.8c-6.3-9.2-12.6-18.5-18.7-27.8c-1.5-2.3-3.1-2.9-5.8-2.3
			c-23.2,4.7-46.6,5.5-70.1,3.5c-21.1-1.8-41.5-6.6-61.4-13.9c-31-11.4-58.4-28.4-82.5-50.9c-24.1-22.6-43-48.9-56.5-79.2
			c-14.2-31.7-21.1-64.9-21.1-99.5c0-18.9,1.8-37.7,6.6-56.1c0.8-2.9-0.3-3.4-2.8-3.3C162.2,332.1,156.8,332.1,151.3,332.1z"/>
	</g>
	<g>
		<path d="M898.4,112.4h-53.3V73.3h150.1v39.1h-53.1v136.3h-43.6V112.4z"/>
		<path d="M1177.4,73.3v175.3h-43.6v-69.9H1062v69.9h-43.6V73.3h43.6v66.4h71.7V73.3H1177.4z"/>
		<path d="M1253.7,112.4v27.3h85.8v39.1h-85.8v30.9h94.4v39.1h-138.1V73.3h138.1v39.1H1253.7z"/>
		<path class="st2" d="M847.9,384.1c0-49.3,43.1-90.6,94.2-90.6c27.3,0,52.3,11.7,69.7,30.1L979.8,352c-9.2-11.5-23-18.9-37.8-18.9
			c-26.8,0-49.5,23.5-49.5,51c0,27.8,22.7,51.3,49.5,51.3c15.1,0,28.6-7.4,38-18.9l31.6,28.1c-17.4,18.6-42.4,30.4-69.7,30.4
			C891,475,847.9,433.4,847.9,384.1z"/>
		<path class="st2" d="M1023,384.1c0-49.3,43.1-90.6,94.2-90.6c51.3,0,94.4,41.3,94.4,90.6c0,49.3-43.1,90.9-94.4,90.9
			C1066.1,475,1023,433.4,1023,384.1z M1166.7,384.1c0-27.6-22.7-51-49.5-51c-26.8,0-49.5,23.5-49.5,51c0,27.8,22.7,51.3,49.5,51.3
			C1144,435.4,1166.7,412,1166.7,384.1z"/>
		<path class="st2" d="M1237.9,296.6h43.6v175.3h-43.6V296.6z"/>
		<path class="st2" d="M1315.5,296.6h43.6l76.3,103.6V296.6h43.6v175.3h-43.6l-76.3-103.6v103.6h-43.6V296.6z"/>
		<path d="M958.1,695.2l-38.5-54.9h-21.4v54.9h-43.6V519.8h81.4c38.5,0,66.6,24.8,66.6,60.2c0,25.5-14.5,45.7-37.3,54.9l42.4,60.2
			H958.1z M898.2,600.5h33.7c15.1,0,25.8-8.2,25.8-20.4s-10.7-20.4-25.8-20.4h-33.7V600.5z"/>
		<path d="M1073.8,558.9v27.3h85.8v39.1h-85.8v30.9h94.4v39.1h-138.1V519.8h138.1v39.1H1073.8z"/>
		<path d="M1195,519.8h81.4c38.5,0,66.6,24.8,66.6,60.2s-28.1,60.2-66.6,60.2h-37.8v54.9H1195V519.8z M1272.3,600.5
			c15.1,0,25.8-8.2,25.8-20.4s-10.7-20.4-25.8-20.4h-33.7v40.8H1272.3z"/>
		<path d="M1363.7,618.4v-98.5h43.6v96.5c0,24.8,15.8,42.4,37.8,42.4c22.2,0,38-17.6,38-42.4v-96.5h43.4v98.5
			c0,47-33.4,79.9-81.4,79.9C1397.4,698.2,1363.7,665.3,1363.7,618.4z"/>
		<path d="M1559,519.8h91.6c32.4,0,54.9,18.6,54.9,44.2c0,17.4-8.9,31.4-24.2,39.1c20.2,8.9,32.2,25.5,32.2,44.7
			c0,28.1-24.8,47.5-59.5,47.5H1559V519.8z M1639.9,589.3c12,0,20.7-6.9,20.7-16.3s-8.7-16.1-20.7-16.1h-37.5v32.4H1639.9z
			 M1646.5,658.2c12.8,0,22-7.4,22-17.6s-9.2-17.6-22-17.6h-44.2v35.2H1646.5z"/>
		<path d="M1865.5,656.1v39.1h-127.9V519.8h43.4v136.3H1865.5z"/>
		<path d="M1889.2,519.8h43.6v175.3h-43.6V519.8z"/>
		<path d="M1959.4,607.4c0-49.3,43.1-90.6,94.2-90.6c27.3,0,52.3,11.7,69.7,30.1l-31.9,28.3c-9.2-11.5-23-18.9-37.8-18.9
			c-26.8,0-49.5,23.5-49.5,51c0,27.8,22.7,51.3,49.5,51.3c15.1,0,28.6-7.4,38-18.9l31.6,28.1c-17.4,18.6-42.4,30.4-69.7,30.4
			C2002.6,698.2,1959.4,656.6,1959.4,607.4z"/>
	</g>
</g>
</svg>
